<svg width="1440" height="458" viewBox="0 0 1440 458" fill="none" xmlns="http://www.w3.org/2000/svg">
<g clip-path="url(#clip0_702_13799)">
<rect width="1440" height="458" fill="#001876"/>
<g filter="url(#filter0_f_702_13799)">
<path d="M1000.28 314.348C1000.28 375.701 850.082 425.438 664.799 425.438C479.515 425.438 329.313 375.701 329.313 314.348C329.313 252.994 510.458 157.944 695.742 157.944C881.025 157.944 1000.28 252.994 1000.28 314.348Z" fill="#C753FE"/>
</g>
<g filter="url(#filter1_f_702_13799)">
<path d="M620.829 106.054C573.6 99.4758 182.484 165.034 179.486 191.564C58.0626 191.564 44.3149 172.239 44.3149 117.747C44.3149 63.2557 729.034 35.1604 850.457 35.1604C971.881 35.1604 668.058 112.631 620.829 106.054Z" fill="#562EBA"/>
</g>
<g filter="url(#filter2_f_702_13799)">
<path d="M1440 85.5896C1440 115.863 1385.31 140.404 1317.86 140.404C1250.4 140.404 1273.89 105.631 1273.89 75.3576C1273.89 45.0845 1235.74 36.6222 1303.2 36.6222C1370.66 36.6222 1440 55.3165 1440 85.5896Z" fill="#2E1371"/>
</g>
<g filter="url(#filter3_f_702_13799)">
<path d="M1252.06 135.288C1252.06 165.561 1197.37 190.102 1129.91 190.102C1062.46 190.102 1085.94 155.329 1085.94 125.056C1085.94 94.7828 1047.8 86.3204 1115.26 86.3204C1182.72 86.3204 1252.06 105.015 1252.06 135.288Z" fill="#2E1371"/>
</g>
<g filter="url(#filter4_f_702_13799)">
<path d="M1423.71 367.7C1423.71 417.348 1334.03 457.596 1223.4 457.596C1112.77 457.596 1031.23 425.388 1031.23 375.74C1031.23 326.092 1203.97 243.455 1314.6 243.455C1425.23 243.455 1423.71 318.052 1423.71 367.7Z" fill="#09FBD3"/>
</g>
<g filter="url(#filter5_f_702_13799)">
<path d="M357 219.336C357 248.802 231.946 266.111 168.086 266.111C104.226 266.111 15 215.183 15 185.717C15 156.251 221.483 126.518 285.343 126.518C349.203 126.518 357 189.871 357 219.336Z" fill="#562EBA"/>
</g>
<g filter="url(#filter6_f_702_13799)">
<path d="M1417 170.819C1417 200.285 1291.95 217.594 1228.09 217.594C1164.23 217.594 1075 166.665 1075 137.199C1075 107.734 1281.48 78 1345.34 78C1409.2 78 1417 141.353 1417 170.819Z" fill="#562EBA"/>
</g>
<g filter="url(#filter7_f_702_13799)">
<path d="M215 102.819C215 132.285 89.9455 149.594 26.0856 149.594C-37.7742 149.594 -127 98.6652 -127 69.1994C-127 39.7336 79.4829 10 143.343 10C207.203 10 215 73.353 215 102.819Z" fill="#562EBA"/>
</g>
<g filter="url(#filter8_f_702_13799)">
<path d="M822.772 35.8913C822.772 50.0187 711.278 61.4713 676.2 61.4713C641.122 61.4713 557.314 56.5964 557.314 42.469C557.314 28.3416 641.122 10.3113 676.2 10.3113C711.278 10.3113 822.772 21.7638 822.772 35.8913Z" fill="#FE53BB"/>
</g>
<g filter="url(#filter9_f_702_13799)">
<path d="M1080.09 78.281C1080.09 92.4085 968.593 103.861 933.515 103.861C898.437 103.861 814.629 98.9862 814.629 84.8588C814.629 70.7313 898.437 52.701 933.515 52.701C968.593 52.701 1080.09 64.1536 1080.09 78.281Z" fill="#FE53BB"/>
</g>
<g filter="url(#filter10_f_702_13799)">
<path d="M698.176 122.779C697.694 180.891 632.567 227.462 552.712 226.799C472.858 226.136 414.313 187.949 414.796 129.837C415.278 71.7251 540.769 -23.9646 620.623 -23.3015C700.478 -22.6383 698.659 64.6677 698.176 122.779Z" fill="#09FBD3"/>
</g>
<g filter="url(#filter11_f_702_13799)">
<path d="M1493.18 375.779C1492.69 433.891 1427.57 480.462 1347.71 479.799C1267.86 479.136 1209.31 440.949 1209.8 382.837C1210.28 324.725 1335.77 229.035 1415.62 229.699C1495.48 230.362 1493.66 317.668 1493.18 375.779Z" fill="#09FBD3"/>
</g>
<g filter="url(#filter12_f_702_13799)">
<path d="M268 410.819C268 440.285 142.946 457.594 79.0856 457.594C15.2258 457.594 -74 406.665 -74 377.199C-74 347.734 132.483 318 196.343 318C260.203 318 268 381.353 268 410.819Z" fill="#562EBA"/>
</g>
<g filter="url(#filter13_b_702_13799)">
<rect x="-5" width="1445" height="458" fill="black" fill-opacity="0.14" style="mix-blend-mode:luminosity"/>
</g>
</g>
<defs>
<filter id="filter0_f_702_13799" x="209.313" y="37.9445" width="910.971" height="507.494" filterUnits="userSpaceOnUse" color-interpolation-filters="sRGB">
<feFlood flood-opacity="0" result="BackgroundImageFix"/>
<feBlend mode="normal" in="SourceGraphic" in2="BackgroundImageFix" result="shape"/>
<feGaussianBlur stdDeviation="60" result="effect1_foregroundBlur_702_13799"/>
</filter>
<filter id="filter1_f_702_13799" x="-75.6851" y="-84.8396" width="1074.58" height="396.403" filterUnits="userSpaceOnUse" color-interpolation-filters="sRGB">
<feFlood flood-opacity="0" result="BackgroundImageFix"/>
<feBlend mode="normal" in="SourceGraphic" in2="BackgroundImageFix" result="shape"/>
<feGaussianBlur stdDeviation="60" result="effect1_foregroundBlur_702_13799"/>
</filter>
<filter id="filter2_f_702_13799" x="1143.14" y="-83.3778" width="416.857" height="343.782" filterUnits="userSpaceOnUse" color-interpolation-filters="sRGB">
<feFlood flood-opacity="0" result="BackgroundImageFix"/>
<feBlend mode="normal" in="SourceGraphic" in2="BackgroundImageFix" result="shape"/>
<feGaussianBlur stdDeviation="60" result="effect1_foregroundBlur_702_13799"/>
</filter>
<filter id="filter3_f_702_13799" x="955.2" y="-33.6796" width="416.857" height="343.782" filterUnits="userSpaceOnUse" color-interpolation-filters="sRGB">
<feFlood flood-opacity="0" result="BackgroundImageFix"/>
<feBlend mode="normal" in="SourceGraphic" in2="BackgroundImageFix" result="shape"/>
<feGaussianBlur stdDeviation="60" result="effect1_foregroundBlur_702_13799"/>
</filter>
<filter id="filter4_f_702_13799" x="911.228" y="123.455" width="632.487" height="454.141" filterUnits="userSpaceOnUse" color-interpolation-filters="sRGB">
<feFlood flood-opacity="0" result="BackgroundImageFix"/>
<feBlend mode="normal" in="SourceGraphic" in2="BackgroundImageFix" result="shape"/>
<feGaussianBlur stdDeviation="60" result="effect1_foregroundBlur_702_13799"/>
</filter>
<filter id="filter5_f_702_13799" x="-105" y="6.51758" width="582" height="379.594" filterUnits="userSpaceOnUse" color-interpolation-filters="sRGB">
<feFlood flood-opacity="0" result="BackgroundImageFix"/>
<feBlend mode="normal" in="SourceGraphic" in2="BackgroundImageFix" result="shape"/>
<feGaussianBlur stdDeviation="60" result="effect1_foregroundBlur_702_13799"/>
</filter>
<filter id="filter6_f_702_13799" x="955" y="-42" width="582" height="379.594" filterUnits="userSpaceOnUse" color-interpolation-filters="sRGB">
<feFlood flood-opacity="0" result="BackgroundImageFix"/>
<feBlend mode="normal" in="SourceGraphic" in2="BackgroundImageFix" result="shape"/>
<feGaussianBlur stdDeviation="60" result="effect1_foregroundBlur_702_13799"/>
</filter>
<filter id="filter7_f_702_13799" x="-247" y="-110" width="582" height="379.594" filterUnits="userSpaceOnUse" color-interpolation-filters="sRGB">
<feFlood flood-opacity="0" result="BackgroundImageFix"/>
<feBlend mode="normal" in="SourceGraphic" in2="BackgroundImageFix" result="shape"/>
<feGaussianBlur stdDeviation="60" result="effect1_foregroundBlur_702_13799"/>
</filter>
<filter id="filter8_f_702_13799" x="437.314" y="-109.689" width="505.457" height="291.16" filterUnits="userSpaceOnUse" color-interpolation-filters="sRGB">
<feFlood flood-opacity="0" result="BackgroundImageFix"/>
<feBlend mode="normal" in="SourceGraphic" in2="BackgroundImageFix" result="shape"/>
<feGaussianBlur stdDeviation="60" result="effect1_foregroundBlur_702_13799"/>
</filter>
<filter id="filter9_f_702_13799" x="694.629" y="-67.299" width="505.457" height="291.16" filterUnits="userSpaceOnUse" color-interpolation-filters="sRGB">
<feFlood flood-opacity="0" result="BackgroundImageFix"/>
<feBlend mode="normal" in="SourceGraphic" in2="BackgroundImageFix" result="shape"/>
<feGaussianBlur stdDeviation="60" result="effect1_foregroundBlur_702_13799"/>
</filter>
<filter id="filter10_f_702_13799" x="294.793" y="-143.305" width="523.486" height="490.111" filterUnits="userSpaceOnUse" color-interpolation-filters="sRGB">
<feFlood flood-opacity="0" result="BackgroundImageFix"/>
<feBlend mode="normal" in="SourceGraphic" in2="BackgroundImageFix" result="shape"/>
<feGaussianBlur stdDeviation="60" result="effect1_foregroundBlur_702_13799"/>
</filter>
<filter id="filter11_f_702_13799" x="1089.79" y="109.695" width="523.486" height="490.111" filterUnits="userSpaceOnUse" color-interpolation-filters="sRGB">
<feFlood flood-opacity="0" result="BackgroundImageFix"/>
<feBlend mode="normal" in="SourceGraphic" in2="BackgroundImageFix" result="shape"/>
<feGaussianBlur stdDeviation="60" result="effect1_foregroundBlur_702_13799"/>
</filter>
<filter id="filter12_f_702_13799" x="-194" y="198" width="582" height="379.594" filterUnits="userSpaceOnUse" color-interpolation-filters="sRGB">
<feFlood flood-opacity="0" result="BackgroundImageFix"/>
<feBlend mode="normal" in="SourceGraphic" in2="BackgroundImageFix" result="shape"/>
<feGaussianBlur stdDeviation="60" result="effect1_foregroundBlur_702_13799"/>
</filter>
<filter id="filter13_b_702_13799" x="-205" y="-200" width="1845" height="858" filterUnits="userSpaceOnUse" color-interpolation-filters="sRGB">
<feFlood flood-opacity="0" result="BackgroundImageFix"/>
<feGaussianBlur in="BackgroundImageFix" stdDeviation="100"/>
<feComposite in2="SourceAlpha" operator="in" result="effect1_backgroundBlur_702_13799"/>
<feBlend mode="normal" in="SourceGraphic" in2="effect1_backgroundBlur_702_13799" result="shape"/>
</filter>
<clipPath id="clip0_702_13799">
<rect width="1440" height="458" fill="white"/>
</clipPath>
</defs>
</svg>
